<?xml version="1.0" encoding="UTF-8" standalone="no"?>
<!DOCTYPE svg PUBLIC "-//W3C//DTD SVG 1.1//EN"
 "http://www.w3.org/Graphics/SVG/1.1/DTD/svg11.dtd">
<!-- Generated by graphviz version 2.44.0 (20200408.0750)
 -->
<!-- Title: dependency&#45;cruiser output Pages: 1 -->
<svg width="650pt" height="285pt"
 viewBox="0.00 0.00 649.51 285.00" xmlns="http://www.w3.org/2000/svg" xmlns:xlink="http://www.w3.org/1999/xlink">
<g id="graph0" class="graph" transform="scale(1 1) rotate(0) translate(4 281)">
<title>dependency&#45;cruiser output</title>
<polygon fill="white" stroke="transparent" points="-4,4 -4,-281 645.51,-281 645.51,4 -4,4"/>
<g id="clust1" class="cluster">
<title>cluster_api</title>
<path fill="#ffffff" stroke="black" stroke-width="2" d="M20,-100C20,-100 422.51,-100 422.51,-100 428.51,-100 434.51,-106 434.51,-112 434.51,-112 434.51,-238 434.51,-238 434.51,-244 428.51,-250 422.51,-250 422.51,-250 20,-250 20,-250 14,-250 8,-244 8,-238 8,-238 8,-112 8,-112 8,-106 14,-100 20,-100"/>
<text text-anchor="middle" x="221.25" y="-237.9" font-family="Helvetica,sans-Serif" font-weight="bold" font-size="9.00">api</text>
</g>
<g id="clust2" class="cluster">
<title>cluster_api/business&#45;logic</title>
<path fill="#ffffff" stroke="black" stroke-width="2" d="M254,-108C254,-108 303,-108 303,-108 309,-108 315,-114 315,-120 315,-120 315,-149 315,-149 315,-155 309,-161 303,-161 303,-161 254,-161 254,-161 248,-161 242,-155 242,-149 242,-149 242,-120 242,-120 242,-114 248,-108 254,-108"/>
<text text-anchor="middle" x="278.5" y="-148.9" font-family="Helvetica,sans-Serif" font-weight="bold" font-size="9.00">business&#45;logic</text>
</g>
<g id="clust3" class="cluster">
<title>cluster_api/controllers</title>
<path fill="#ffffff" stroke="black" stroke-width="2" d="M168,-108C168,-108 214,-108 214,-108 220,-108 226,-114 226,-120 226,-120 226,-180 226,-180 226,-186 220,-192 214,-192 214,-192 168,-192 168,-192 162,-192 156,-186 156,-180 156,-180 156,-120 156,-120 156,-114 162,-108 168,-108"/>
<text text-anchor="middle" x="191" y="-179.9" font-family="Helvetica,sans-Serif" font-weight="bold" font-size="9.00">controllers</text>
</g>
<g id="clust4" class="cluster">
<title>cluster_api/data&#45;access</title>
<path fill="#ffffff" stroke="black" stroke-width="2" d="M343,-108C343,-108 414.51,-108 414.51,-108 420.51,-108 426.51,-114 426.51,-120 426.51,-120 426.51,-211 426.51,-211 426.51,-217 420.51,-223 414.51,-223 414.51,-223 343,-223 343,-223 337,-223 331,-217 331,-211 331,-211 331,-120 331,-120 331,-114 337,-108 343,-108"/>
<text text-anchor="middle" x="378.75" y="-210.9" font-family="Helvetica,sans-Serif" font-weight="bold" font-size="9.00">data&#45;access</text>
</g>
<g id="clust5" class="cluster">
<title>cluster_api/routes</title>
<path fill="#ffffff" stroke="black" stroke-width="2" d="M90,-108C90,-108 136,-108 136,-108 142,-108 148,-114 148,-120 148,-120 148,-180 148,-180 148,-186 142,-192 136,-192 136,-192 90,-192 90,-192 84,-192 78,-186 78,-180 78,-180 78,-120 78,-120 78,-114 84,-108 90,-108"/>
<text text-anchor="middle" x="113" y="-179.9" font-family="Helvetica,sans-Serif" font-weight="bold" font-size="9.00">routes</text>
</g>
<g id="clust6" class="cluster">
<title>cluster_config</title>
<path fill="#ffffff" stroke="black" stroke-width="2" d="M454.51,-216C454.51,-216 567.51,-216 567.51,-216 573.51,-216 579.51,-222 579.51,-228 579.51,-228 579.51,-257 579.51,-257 579.51,-263 573.51,-269 567.51,-269 567.51,-269 454.51,-269 454.51,-269 448.51,-269 442.51,-263 442.51,-257 442.51,-257 442.51,-228 442.51,-228 442.51,-222 448.51,-216 454.51,-216"/>
<text text-anchor="middle" x="511.01" y="-256.9" font-family="Helvetica,sans-Serif" font-weight="bold" font-size="9.00">config</text>
</g>
<g id="clust7" class="cluster">
<title>cluster_node_modules</title>
<path fill="#ffffff" stroke="black" stroke-width="2" d="M353.75,-8C353.75,-8 404.75,-8 404.75,-8 410.75,-8 416.75,-14 416.75,-20 416.75,-20 416.75,-80 416.75,-80 416.75,-86 410.75,-92 404.75,-92 404.75,-92 353.75,-92 353.75,-92 347.75,-92 341.75,-86 341.75,-80 341.75,-80 341.75,-20 341.75,-20 341.75,-14 347.75,-8 353.75,-8"/>
<text text-anchor="middle" x="379.25" y="-79.9" font-family="Helvetica,sans-Serif" font-weight="bold" font-size="9.00">node_modules</text>
</g>
<!-- api/business&#45;logic/users.js -->
<g id="node1" class="node">
<title>api/business&#45;logic/users.js</title>
<g id="a_node1"><a xlink:href="api/business-logic/users.js" xlink:title="users.js">
<path fill="#ffffcc" stroke="black" d="M298.8,-134.3C298.8,-134.3 257.2,-134.3 257.2,-134.3 254.1,-134.3 251,-131.2 251,-128.1 251,-128.1 251,-121.9 251,-121.9 251,-118.8 254.1,-115.7 257.2,-115.7 257.2,-115.7 298.8,-115.7 298.8,-115.7 301.9,-115.7 305,-118.8 305,-121.9 305,-121.9 305,-128.1 305,-128.1 305,-131.2 301.9,-134.3 298.8,-134.3"/>
<text text-anchor="middle" x="278" y="-122.3" font-family="Helvetica,sans-Serif" font-size="9.00">users.js</text>
</a>
</g>
</g>
<!-- api/data&#45;access/persistent.js -->
<g id="node2" class="node">
<title>api/data&#45;access/persistent.js</title>
<g id="a_node2"><a xlink:href="api/data-access/persistent.js" xlink:title="persistent.js">
<path fill="#ffffcc" stroke="black" d="M404.56,-165.3C404.56,-165.3 352.95,-165.3 352.95,-165.3 349.85,-165.3 346.75,-162.2 346.75,-159.1 346.75,-159.1 346.75,-152.9 346.75,-152.9 346.75,-149.8 349.85,-146.7 352.95,-146.7 352.95,-146.7 404.56,-146.7 404.56,-146.7 407.66,-146.7 410.76,-149.8 410.76,-152.9 410.76,-152.9 410.76,-159.1 410.76,-159.1 410.76,-162.2 407.66,-165.3 404.56,-165.3"/>
<text text-anchor="middle" x="378.75" y="-153.3" font-family="Helvetica,sans-Serif" font-size="9.00">persistent.js</text>
</a>
</g>
</g>
<!-- api/business&#45;logic/users.js&#45;&gt;api/data&#45;access/persistent.js -->
<g id="edge1" class="edge">
<title>api/business&#45;logic/users.js&#45;&gt;api/data&#45;access/persistent.js</title>
<path fill="none" stroke="#000000" stroke-width="2" stroke-opacity="0.200000" d="M305.21,-133.23C316.5,-136.77 329.89,-140.97 342.07,-144.8"/>
<polygon fill="#000000" fill-opacity="0.200000" stroke="#000000" stroke-width="2" stroke-opacity="0.200000" points="341.58,-146.85 347.93,-146.64 342.84,-142.84 341.58,-146.85"/>
</g>
<!-- node_modules/objectid -->
<g id="node3" class="node">
<title>node_modules/objectid</title>
<g id="a_node3"><a xlink:href="node_modules/objectid" xlink:title="objectid">
<polygon fill="#c40b0a" fill-opacity="0.101961" stroke="black" points="405.75,-65.3 353.82,-65.3 351.75,-63.23 351.75,-46.7 403.69,-46.7 405.75,-48.77 405.75,-65.3"/>
<polyline fill="none" stroke="black" points="403.69,-63.23 351.75,-63.23 "/>
<polyline fill="none" stroke="black" points="403.69,-63.23 403.69,-46.7 "/>
<polyline fill="none" stroke="black" points="403.69,-63.23 405.75,-65.3 "/>
<text text-anchor="middle" x="378.75" y="-53.3" font-family="Helvetica,sans-Serif" font-size="9.00" fill="#c40b0a">objectid</text>
</a>
</g>
</g>
<!-- api/business&#45;logic/users.js&#45;&gt;node_modules/objectid -->
<g id="edge2" class="edge">
<title>api/business&#45;logic/users.js&#45;&gt;node_modules/objectid</title>
<path fill="none" stroke="#000000" stroke-opacity="0.200000" d="M293.44,-115.53C300.05,-111.16 307.96,-105.87 315,-101 330.24,-90.46 347.33,-78.18 359.81,-69.11"/>
<polygon fill="#000000" fill-opacity="0.200000" stroke="#000000" stroke-opacity="0.200000" points="361.25,-70.67 364.87,-65.44 358.78,-67.27 361.25,-70.67"/>
</g>
<!-- config/index.js -->
<g id="node7" class="node">
<title>config/index.js</title>
<g id="a_node7"><a xlink:href="config/index.js" xlink:title="index.js">
<path fill="#ffffcc" stroke="black" d="M498.31,-242.3C498.31,-242.3 456.71,-242.3 456.71,-242.3 453.61,-242.3 450.51,-239.2 450.51,-236.1 450.51,-236.1 450.51,-229.9 450.51,-229.9 450.51,-226.8 453.61,-223.7 456.71,-223.7 456.71,-223.7 498.31,-223.7 498.31,-223.7 501.41,-223.7 504.51,-226.8 504.51,-229.9 504.51,-229.9 504.51,-236.1 504.51,-236.1 504.51,-239.2 501.41,-242.3 498.31,-242.3"/>
<text text-anchor="middle" x="477.51" y="-230.3" font-family="Helvetica,sans-Serif" font-size="9.00">index.js</text>
</a>
</g>
</g>
<!-- api/data&#45;access/persistent.js&#45;&gt;config/index.js -->
<g id="edge9" class="edge">
<title>api/data&#45;access/persistent.js&#45;&gt;config/index.js</title>
<path fill="none" stroke="#000000" stroke-width="2" stroke-opacity="0.200000" d="M410.9,-160.41C419.26,-162.78 427.82,-166.41 434.51,-172 440.61,-177.1 438.32,-181.24 442.51,-188 449.09,-198.61 457.56,-209.82 464.39,-218.39"/>
<polygon fill="#000000" fill-opacity="0.200000" stroke="#000000" stroke-width="2" stroke-opacity="0.200000" points="463,-220.01 468.4,-223.36 466.27,-217.38 463,-220.01"/>
</g>
<!-- fs -->
<g id="node8" class="node">
<title>fs</title>
<path fill="#ffffcc" stroke="grey" d="M498.31,-151.3C498.31,-151.3 456.71,-151.3 456.71,-151.3 453.61,-151.3 450.51,-148.2 450.51,-145.1 450.51,-145.1 450.51,-138.9 450.51,-138.9 450.51,-135.8 453.61,-132.7 456.71,-132.7 456.71,-132.7 498.31,-132.7 498.31,-132.7 501.41,-132.7 504.51,-135.8 504.51,-138.9 504.51,-138.9 504.51,-145.1 504.51,-145.1 504.51,-148.2 501.41,-151.3 498.31,-151.3"/>
<text text-anchor="middle" x="477.51" y="-139.3" font-family="Helvetica,sans-Serif" font-size="9.00" fill="grey">fs</text>
</g>
<!-- api/data&#45;access/persistent.js&#45;&gt;fs -->
<g id="edge10" class="edge">
<title>api/data&#45;access/persistent.js&#45;&gt;fs</title>
<path fill="none" stroke="#000000" stroke-dasharray="5,2" stroke-opacity="0.200000" d="M410.9,-151.49C421.52,-149.96 433.42,-148.24 444.13,-146.68"/>
<polygon fill="#000000" fill-opacity="0.200000" stroke="#000000" stroke-opacity="0.200000" points="444.65,-148.73 450.29,-145.79 444.05,-144.58 444.65,-148.73"/>
</g>
<!-- path -->
<g id="node9" class="node">
<title>path</title>
<path fill="#ffffcc" stroke="grey" d="M635.31,-210.3C635.31,-210.3 593.71,-210.3 593.71,-210.3 590.61,-210.3 587.51,-207.2 587.51,-204.1 587.51,-204.1 587.51,-197.9 587.51,-197.9 587.51,-194.8 590.61,-191.7 593.71,-191.7 593.71,-191.7 635.31,-191.7 635.31,-191.7 638.41,-191.7 641.51,-194.8 641.51,-197.9 641.51,-197.9 641.51,-204.1 641.51,-204.1 641.51,-207.2 638.41,-210.3 635.31,-210.3"/>
<text text-anchor="middle" x="614.51" y="-198.3" font-family="Helvetica,sans-Serif" font-size="9.00" fill="grey">path</text>
</g>
<!-- api/data&#45;access/persistent.js&#45;&gt;path -->
<g id="edge11" class="edge">
<title>api/data&#45;access/persistent.js&#45;&gt;path</title>
<path fill="none" stroke="#000000" stroke-dasharray="5,2" stroke-opacity="0.200000" d="M410.88,-151.12C419.14,-148.75 427.66,-145.23 434.51,-140 439.9,-135.89 436.59,-130.31 442.51,-127 466.56,-113.56 478.17,-118.9 504.51,-127 543.01,-138.83 580.11,-169.4 599.53,-187.33"/>
<polygon fill="#000000" fill-opacity="0.200000" stroke="#000000" stroke-opacity="0.200000" points="598.26,-189.02 604.07,-191.59 601.14,-185.96 598.26,-189.02"/>
</g>
<!-- util -->
<g id="node10" class="node">
<title>util</title>
<path fill="#ffffcc" stroke="grey" d="M498.31,-182.3C498.31,-182.3 456.71,-182.3 456.71,-182.3 453.61,-182.3 450.51,-179.2 450.51,-176.1 450.51,-176.1 450.51,-169.9 450.51,-169.9 450.51,-166.8 453.61,-163.7 456.71,-163.7 456.71,-163.7 498.31,-163.7 498.31,-163.7 501.41,-163.7 504.51,-166.8 504.51,-169.9 504.51,-169.9 504.51,-176.1 504.51,-176.1 504.51,-179.2 501.41,-182.3 498.31,-182.3"/>
<text text-anchor="middle" x="477.51" y="-170.3" font-family="Helvetica,sans-Serif" font-size="9.00" fill="grey">util</text>
</g>
<!-- api/data&#45;access/persistent.js&#45;&gt;util -->
<g id="edge12" class="edge">
<title>api/data&#45;access/persistent.js&#45;&gt;util</title>
<path fill="none" stroke="#000000" stroke-dasharray="5,2" stroke-opacity="0.200000" d="M410.9,-161.47C421.52,-163.34 433.42,-165.43 444.13,-167.31"/>
<polygon fill="#000000" fill-opacity="0.200000" stroke="#000000" stroke-opacity="0.200000" points="444.02,-169.42 450.29,-168.39 444.74,-165.29 444.02,-169.42"/>
</g>
<!-- api/controllers/hello.js -->
<g id="node4" class="node">
<title>api/controllers/hello.js</title>
<g id="a_node4"><a xlink:href="api/controllers/hello.js" xlink:title="hello.js">
<path fill="#ffffcc" stroke="black" d="M211.8,-165.3C211.8,-165.3 170.2,-165.3 170.2,-165.3 167.1,-165.3 164,-162.2 164,-159.1 164,-159.1 164,-152.9 164,-152.9 164,-149.8 167.1,-146.7 170.2,-146.7 170.2,-146.7 211.8,-146.7 211.8,-146.7 214.9,-146.7 218,-149.8 218,-152.9 218,-152.9 218,-159.1 218,-159.1 218,-162.2 214.9,-165.3 211.8,-165.3"/>
<text text-anchor="middle" x="191" y="-153.3" font-family="Helvetica,sans-Serif" font-size="9.00">hello.js</text>
</a>
</g>
</g>
<!-- api/data&#45;access/hello.js -->
<g id="node5" class="node">
<title>api/data&#45;access/hello.js</title>
<g id="a_node5"><a xlink:href="api/data-access/hello.js" xlink:title="hello.js">
<path fill="#ffffcc" stroke="black" d="M399.55,-196.3C399.55,-196.3 357.96,-196.3 357.96,-196.3 354.86,-196.3 351.75,-193.2 351.75,-190.1 351.75,-190.1 351.75,-183.9 351.75,-183.9 351.75,-180.8 354.86,-177.7 357.96,-177.7 357.96,-177.7 399.55,-177.7 399.55,-177.7 402.65,-177.7 405.75,-180.8 405.75,-183.9 405.75,-183.9 405.75,-190.1 405.75,-190.1 405.75,-193.2 402.65,-196.3 399.55,-196.3"/>
<text text-anchor="middle" x="378.75" y="-184.3" font-family="Helvetica,sans-Serif" font-size="9.00">hello.js</text>
</a>
</g>
</g>
<!-- api/controllers/hello.js&#45;&gt;api/data&#45;access/hello.js -->
<g id="edge3" class="edge">
<title>api/controllers/hello.js&#45;&gt;api/data&#45;access/hello.js</title>
<path fill="none" stroke="#000000" stroke-width="2" stroke-opacity="0.200000" d="M218.22,-160.38C251.69,-165.96 309.56,-175.62 345.63,-181.64"/>
<polygon fill="#000000" fill-opacity="0.200000" stroke="#000000" stroke-width="2" stroke-opacity="0.200000" points="345.4,-183.73 351.67,-182.65 346.1,-179.59 345.4,-183.73"/>
</g>
<!-- api/data&#45;access/hello.js&#45;&gt;config/index.js -->
<g id="edge5" class="edge">
<title>api/data&#45;access/hello.js&#45;&gt;config/index.js</title>
<path fill="none" stroke="#000000" stroke-width="2" stroke-opacity="0.200000" d="M399.33,-196.31C414.19,-203.37 434.73,-213.14 450.89,-220.82"/>
<polygon fill="#000000" fill-opacity="0.200000" stroke="#000000" stroke-width="2" stroke-opacity="0.200000" points="450.31,-222.87 456.63,-223.55 452.11,-219.07 450.31,-222.87"/>
</g>
<!-- api/data&#45;access/hello.js&#45;&gt;fs -->
<g id="edge6" class="edge">
<title>api/data&#45;access/hello.js&#45;&gt;fs</title>
<path fill="none" stroke="#000000" stroke-dasharray="5,2" stroke-opacity="0.200000" d="M405.8,-183.45C415.55,-181.13 426.24,-177.31 434.51,-171 439.9,-166.89 437.45,-162.52 442.51,-158 443.83,-156.82 445.26,-155.71 446.75,-154.66"/>
<polygon fill="#000000" fill-opacity="0.200000" stroke="#000000" stroke-opacity="0.200000" points="448.03,-156.34 452.02,-151.38 445.81,-152.77 448.03,-156.34"/>
</g>
<!-- api/data&#45;access/hello.js&#45;&gt;path -->
<g id="edge7" class="edge">
<title>api/data&#45;access/hello.js&#45;&gt;path</title>
<path fill="none" stroke="#000000" stroke-dasharray="5,2" stroke-opacity="0.200000" d="M406.11,-188.58C449.19,-191.16 534.55,-196.27 581.2,-199.07"/>
<polygon fill="#000000" fill-opacity="0.200000" stroke="#000000" stroke-opacity="0.200000" points="581.13,-201.16 587.25,-199.43 581.38,-196.97 581.13,-201.16"/>
</g>
<!-- api/data&#45;access/hello.js&#45;&gt;util -->
<g id="edge8" class="edge">
<title>api/data&#45;access/hello.js&#45;&gt;util</title>
<path fill="none" stroke="#000000" stroke-dasharray="5,2" stroke-opacity="0.200000" d="M405.94,-183.21C417.77,-181.5 431.86,-179.46 444.33,-177.66"/>
<polygon fill="#000000" fill-opacity="0.200000" stroke="#000000" stroke-opacity="0.200000" points="444.67,-179.73 450.31,-176.79 444.07,-175.57 444.67,-179.73"/>
</g>
<!-- api/controllers/users.js -->
<g id="node6" class="node">
<title>api/controllers/users.js</title>
<g id="a_node6"><a xlink:href="api/controllers/users.js" xlink:title="users.js">
<path fill="#ffffcc" stroke="black" d="M211.8,-134.3C211.8,-134.3 170.2,-134.3 170.2,-134.3 167.1,-134.3 164,-131.2 164,-128.1 164,-128.1 164,-121.9 164,-121.9 164,-118.8 167.1,-115.7 170.2,-115.7 170.2,-115.7 211.8,-115.7 211.8,-115.7 214.9,-115.7 218,-118.8 218,-121.9 218,-121.9 218,-128.1 218,-128.1 218,-131.2 214.9,-134.3 211.8,-134.3"/>
<text text-anchor="middle" x="191" y="-122.3" font-family="Helvetica,sans-Serif" font-size="9.00">users.js</text>
</a>
</g>
</g>
<!-- api/controllers/users.js&#45;&gt;api/business&#45;logic/users.js -->
<g id="edge4" class="edge">
<title>api/controllers/users.js&#45;&gt;api/business&#45;logic/users.js</title>
<path fill="none" stroke="#000000" stroke-width="2" stroke-opacity="0.200000" d="M218.43,-125C226.74,-125 236.02,-125 244.69,-125"/>
<polygon fill="#000000" fill-opacity="0.200000" stroke="#000000" stroke-width="2" stroke-opacity="0.200000" points="244.88,-127.1 250.88,-125 244.88,-122.9 244.88,-127.1"/>
</g>
<!-- config/default.js -->
<g id="node16" class="node">
<title>config/default.js</title>
<g id="a_node16"><a xlink:href="config/default.js" xlink:title="default.js">
<path fill="#ffffcc" stroke="black" d="M565.31,-242.3C565.31,-242.3 523.71,-242.3 523.71,-242.3 520.61,-242.3 517.51,-239.2 517.51,-236.1 517.51,-236.1 517.51,-229.9 517.51,-229.9 517.51,-226.8 520.61,-223.7 523.71,-223.7 523.71,-223.7 565.31,-223.7 565.31,-223.7 568.41,-223.7 571.51,-226.8 571.51,-229.9 571.51,-229.9 571.51,-236.1 571.51,-236.1 571.51,-239.2 568.41,-242.3 565.31,-242.3"/>
<text text-anchor="middle" x="544.51" y="-230.3" font-family="Helvetica,sans-Serif" font-size="9.00">default.js</text>
</a>
</g>
</g>
<!-- config/index.js&#45;&gt;config/default.js -->
<g id="edge21" class="edge">
<title>config/index.js&#45;&gt;config/default.js</title>
<path fill="none" stroke="#000000" stroke-width="2" stroke-opacity="0.200000" d="M504.57,-233C506.82,-233 509.12,-233 511.41,-233"/>
<polygon fill="#000000" fill-opacity="0.200000" stroke="#000000" stroke-width="2" stroke-opacity="0.200000" points="511.44,-235.1 517.44,-233 511.44,-230.9 511.44,-235.1"/>
</g>
<!-- api/data&#45;access/not&#45;persistent.js -->
<g id="node11" class="node">
<title>api/data&#45;access/not&#45;persistent.js</title>
<g id="a_node11"><a xlink:href="api/data-access/not-persistent.js" xlink:title="not&#45;persistent.js">
<path fill="#ccffcc" stroke="black" d="M412.06,-134.3C412.06,-134.3 345.44,-134.3 345.44,-134.3 342.34,-134.3 339.24,-131.2 339.24,-128.1 339.24,-128.1 339.24,-121.9 339.24,-121.9 339.24,-118.8 342.34,-115.7 345.44,-115.7 345.44,-115.7 412.06,-115.7 412.06,-115.7 415.17,-115.7 418.27,-118.8 418.27,-121.9 418.27,-121.9 418.27,-128.1 418.27,-128.1 418.27,-131.2 415.17,-134.3 412.06,-134.3"/>
<text text-anchor="middle" x="378.75" y="-122.3" font-family="Helvetica,sans-Serif" font-size="9.00">not&#45;persistent.js</text>
</a>
</g>
</g>
<!-- api/index.js -->
<g id="node12" class="node">
<title>api/index.js</title>
<g id="a_node12"><a xlink:href="api/index.js" xlink:title="index.js">
<path fill="#ffffcc" stroke="black" d="M63.8,-134.3C63.8,-134.3 22.2,-134.3 22.2,-134.3 19.1,-134.3 16,-131.2 16,-128.1 16,-128.1 16,-121.9 16,-121.9 16,-118.8 19.1,-115.7 22.2,-115.7 22.2,-115.7 63.8,-115.7 63.8,-115.7 66.9,-115.7 70,-118.8 70,-121.9 70,-121.9 70,-128.1 70,-128.1 70,-131.2 66.9,-134.3 63.8,-134.3"/>
<text text-anchor="middle" x="43" y="-122.3" font-family="Helvetica,sans-Serif" font-size="9.00">index.js</text>
</a>
</g>
</g>
<!-- api/routes/hello.js -->
<g id="node13" class="node">
<title>api/routes/hello.js</title>
<g id="a_node13"><a xlink:href="api/routes/hello.js" xlink:title="hello.js">
<path fill="#ffffcc" stroke="black" d="M133.8,-165.3C133.8,-165.3 92.2,-165.3 92.2,-165.3 89.1,-165.3 86,-162.2 86,-159.1 86,-159.1 86,-152.9 86,-152.9 86,-149.8 89.1,-146.7 92.2,-146.7 92.2,-146.7 133.8,-146.7 133.8,-146.7 136.9,-146.7 140,-149.8 140,-152.9 140,-152.9 140,-159.1 140,-159.1 140,-162.2 136.9,-165.3 133.8,-165.3"/>
<text text-anchor="middle" x="113" y="-153.3" font-family="Helvetica,sans-Serif" font-size="9.00">hello.js</text>
</a>
</g>
</g>
<!-- api/index.js&#45;&gt;api/routes/hello.js -->
<g id="edge13" class="edge">
<title>api/index.js&#45;&gt;api/routes/hello.js</title>
<path fill="none" stroke="#000000" stroke-width="2" stroke-opacity="0.200000" d="M64.77,-134.47C71.36,-137.47 78.74,-140.84 85.67,-144"/>
<polygon fill="#000000" fill-opacity="0.200000" stroke="#000000" stroke-width="2" stroke-opacity="0.200000" points="85.02,-146.01 91.36,-146.59 86.77,-142.19 85.02,-146.01"/>
</g>
<!-- api/routes/users.js -->
<g id="node14" class="node">
<title>api/routes/users.js</title>
<g id="a_node14"><a xlink:href="api/routes/users.js" xlink:title="users.js">
<path fill="#ffffcc" stroke="black" d="M133.8,-134.3C133.8,-134.3 92.2,-134.3 92.2,-134.3 89.1,-134.3 86,-131.2 86,-128.1 86,-128.1 86,-121.9 86,-121.9 86,-118.8 89.1,-115.7 92.2,-115.7 92.2,-115.7 133.8,-115.7 133.8,-115.7 136.9,-115.7 140,-118.8 140,-121.9 140,-121.9 140,-128.1 140,-128.1 140,-131.2 136.9,-134.3 133.8,-134.3"/>
<text text-anchor="middle" x="113" y="-122.3" font-family="Helvetica,sans-Serif" font-size="9.00">users.js</text>
</a>
</g>
</g>
<!-- api/index.js&#45;&gt;api/routes/users.js -->
<g id="edge14" class="edge">
<title>api/index.js&#45;&gt;api/routes/users.js</title>
<path fill="none" stroke="#000000" stroke-width="2" stroke-opacity="0.200000" d="M70.1,-125C73.12,-125 76.23,-125 79.33,-125"/>
<polygon fill="#000000" fill-opacity="0.200000" stroke="#000000" stroke-width="2" stroke-opacity="0.200000" points="79.64,-127.1 85.64,-125 79.64,-122.9 79.64,-127.1"/>
</g>
<!-- node_modules/express -->
<g id="node15" class="node">
<title>node_modules/express</title>
<g id="a_node15"><a xlink:href="node_modules/express" xlink:title="express">
<polygon fill="#c40b0a" fill-opacity="0.101961" stroke="black" points="405.75,-34.3 353.82,-34.3 351.75,-32.23 351.75,-15.7 403.69,-15.7 405.75,-17.77 405.75,-34.3"/>
<polyline fill="none" stroke="black" points="403.69,-32.23 351.75,-32.23 "/>
<polyline fill="none" stroke="black" points="403.69,-32.23 403.69,-15.7 "/>
<polyline fill="none" stroke="black" points="403.69,-32.23 405.75,-34.3 "/>
<text text-anchor="middle" x="378.75" y="-22.3" font-family="Helvetica,sans-Serif" font-size="9.00" fill="#c40b0a">express</text>
</a>
</g>
</g>
<!-- api/index.js&#45;&gt;node_modules/express -->
<g id="edge15" class="edge">
<title>api/index.js&#45;&gt;node_modules/express</title>
<path fill="none" stroke="#000000" stroke-opacity="0.200000" d="M54.86,-115.6C73.9,-99.71 115.15,-67.84 156,-53 220.31,-29.64 301.23,-25.17 345.38,-24.66"/>
<polygon fill="#000000" fill-opacity="0.200000" stroke="#000000" stroke-opacity="0.200000" points="345.63,-26.76 351.61,-24.61 345.6,-22.56 345.63,-26.76"/>
</g>
<!-- api/routes/hello.js&#45;&gt;api/controllers/hello.js -->
<g id="edge16" class="edge">
<title>api/routes/hello.js&#45;&gt;api/controllers/hello.js</title>
<path fill="none" stroke="#000000" stroke-width="2" stroke-opacity="0.200000" d="M140.15,-156C145.77,-156 151.76,-156 157.58,-156"/>
<polygon fill="#000000" fill-opacity="0.200000" stroke="#000000" stroke-width="2" stroke-opacity="0.200000" points="157.8,-158.1 163.8,-156 157.8,-153.9 157.8,-158.1"/>
</g>
<!-- api/routes/hello.js&#45;&gt;node_modules/express -->
<g id="edge17" class="edge">
<title>api/routes/hello.js&#45;&gt;node_modules/express</title>
<path fill="none" stroke="#000000" stroke-opacity="0.200000" d="M140.31,-146.75C143.21,-144.87 145.87,-142.64 148,-140 158.01,-127.57 145.04,-116.6 156,-105 181.26,-78.26 283.89,-78.63 315,-59 324.05,-53.29 322.09,-46.93 331,-41 335.42,-38.06 340.42,-35.61 345.48,-33.58"/>
<polygon fill="#000000" fill-opacity="0.200000" stroke="#000000" stroke-opacity="0.200000" points="346.51,-35.44 351.41,-31.39 345.06,-31.5 346.51,-35.44"/>
</g>
<!-- api/routes/users.js&#45;&gt;api/controllers/users.js -->
<g id="edge18" class="edge">
<title>api/routes/users.js&#45;&gt;api/controllers/users.js</title>
<path fill="none" stroke="#000000" stroke-width="2" stroke-opacity="0.200000" d="M140.15,-125C145.77,-125 151.76,-125 157.58,-125"/>
<polygon fill="#000000" fill-opacity="0.200000" stroke="#000000" stroke-width="2" stroke-opacity="0.200000" points="157.8,-127.1 163.8,-125 157.8,-122.9 157.8,-127.1"/>
</g>
<!-- api/routes/users.js&#45;&gt;node_modules/express -->
<g id="edge19" class="edge">
<title>api/routes/users.js&#45;&gt;node_modules/express</title>
<path fill="none" stroke="#000000" stroke-opacity="0.200000" d="M120.56,-115.38C127.97,-105.26 140.98,-89.63 156,-81 218.99,-44.8 244.73,-61.47 315,-43 324.99,-40.38 335.81,-37.34 345.61,-34.52"/>
<polygon fill="#000000" fill-opacity="0.200000" stroke="#000000" stroke-opacity="0.200000" points="346.39,-36.48 351.57,-32.79 345.22,-32.45 346.39,-36.48"/>
</g>
<!-- config/default.js&#45;&gt;path -->
<g id="edge20" class="edge">
<title>config/default.js&#45;&gt;path</title>
<path fill="none" stroke="#000000" stroke-dasharray="5,2" stroke-opacity="0.200000" d="M565.54,-223.57C572.54,-220.28 580.48,-216.54 587.87,-213.07"/>
<polygon fill="#000000" fill-opacity="0.200000" stroke="#000000" stroke-opacity="0.200000" points="588.85,-214.93 593.38,-210.47 587.06,-211.13 588.85,-214.93"/>
</g>
</g>
</svg>
