<?xml version="1.0" encoding="UTF-8" standalone="no"?>
<!DOCTYPE svg PUBLIC "-//W3C//DTD SVG 1.1//EN"
 "http://www.w3.org/Graphics/SVG/1.1/DTD/svg11.dtd">
<!-- Generated by graphviz version 2.44.0 (20200408.0750)
 -->
<!-- Title: dependency&#45;cruiser output Pages: 1 -->
<svg width="478pt" height="195pt"
 viewBox="0.00 0.00 478.00 195.00" xmlns="http://www.w3.org/2000/svg" xmlns:xlink="http://www.w3.org/1999/xlink">
<g id="graph0" class="graph" transform="scale(1 1) rotate(0) translate(4 191)">
<title>dependency&#45;cruiser output</title>
<polygon fill="white" stroke="transparent" points="-4,4 -4,-191 474,-191 474,4 -4,4"/>
<g id="clust1" class="cluster">
<title>cluster_api</title>
<path fill="#ffffff" stroke="black" stroke-width="2" d="M20,-69C20,-69 305,-69 305,-69 311,-69 317,-75 317,-81 317,-81 317,-145 317,-145 317,-151 311,-157 305,-157 305,-157 20,-157 20,-157 14,-157 8,-151 8,-145 8,-145 8,-81 8,-81 8,-75 14,-69 20,-69"/>
<text text-anchor="middle" x="162.5" y="-144.9" font-family="Helvetica,sans-Serif" font-weight="bold" font-size="9.00">api</text>
</g>
<g id="clust2" class="cluster">
<title>cluster_api/controllers</title>
<path fill="#ffffff" stroke="black" stroke-width="2" d="M170,-77C170,-77 216,-77 216,-77 222,-77 228,-83 228,-89 228,-89 228,-118 228,-118 228,-124 222,-130 216,-130 216,-130 170,-130 170,-130 164,-130 158,-124 158,-118 158,-118 158,-89 158,-89 158,-83 164,-77 170,-77"/>
<text text-anchor="middle" x="193" y="-117.9" font-family="Helvetica,sans-Serif" font-weight="bold" font-size="9.00">controllers</text>
</g>
<g id="clust3" class="cluster">
<title>cluster_api/data&#45;access</title>
<path fill="#ffffff" stroke="black" stroke-width="2" d="M251,-77C251,-77 297,-77 297,-77 303,-77 309,-83 309,-89 309,-89 309,-118 309,-118 309,-124 303,-130 297,-130 297,-130 251,-130 251,-130 245,-130 239,-124 239,-118 239,-118 239,-89 239,-89 239,-83 245,-77 251,-77"/>
<text text-anchor="middle" x="274" y="-117.9" font-family="Helvetica,sans-Serif" font-weight="bold" font-size="9.00">data&#45;access</text>
</g>
<g id="clust4" class="cluster">
<title>cluster_api/routes</title>
<path fill="#ffffff" stroke="black" stroke-width="2" d="M90,-77C90,-77 136,-77 136,-77 142,-77 148,-83 148,-89 148,-89 148,-118 148,-118 148,-124 142,-130 136,-130 136,-130 90,-130 90,-130 84,-130 78,-124 78,-118 78,-118 78,-89 78,-89 78,-83 84,-77 90,-77"/>
<text text-anchor="middle" x="113" y="-117.9" font-family="Helvetica,sans-Serif" font-weight="bold" font-size="9.00">routes</text>
</g>
<g id="clust5" class="cluster">
<title>cluster_config</title>
<path fill="#ffffff" stroke="black" stroke-width="2" d="M337,-126C337,-126 450,-126 450,-126 456,-126 462,-132 462,-138 462,-138 462,-167 462,-167 462,-173 456,-179 450,-179 450,-179 337,-179 337,-179 331,-179 325,-173 325,-167 325,-167 325,-138 325,-138 325,-132 331,-126 337,-126"/>
<text text-anchor="middle" x="393.5" y="-166.9" font-family="Helvetica,sans-Serif" font-weight="bold" font-size="9.00">config</text>
</g>
<g id="clust6" class="cluster">
<title>cluster_node_modules</title>
<path fill="#ffffff" stroke="black" stroke-width="2" d="M168,-8C168,-8 219,-8 219,-8 225,-8 231,-14 231,-20 231,-20 231,-49 231,-49 231,-55 225,-61 219,-61 219,-61 168,-61 168,-61 162,-61 156,-55 156,-49 156,-49 156,-20 156,-20 156,-14 162,-8 168,-8"/>
<text text-anchor="middle" x="193.5" y="-48.9" font-family="Helvetica,sans-Serif" font-weight="bold" font-size="9.00">node_modules</text>
</g>
<!-- api/controllers/hello.js -->
<g id="node1" class="node">
<title>api/controllers/hello.js</title>
<g id="a_node1"><a xlink:href="api/controllers/hello.js" xlink:title="hello.js">
<path fill="#ffffcc" stroke="black" d="M213.8,-103.3C213.8,-103.3 172.2,-103.3 172.2,-103.3 169.1,-103.3 166,-100.2 166,-97.1 166,-97.1 166,-90.9 166,-90.9 166,-87.8 169.1,-84.7 172.2,-84.7 172.2,-84.7 213.8,-84.7 213.8,-84.7 216.9,-84.7 220,-87.8 220,-90.9 220,-90.9 220,-97.1 220,-97.1 220,-100.2 216.9,-103.3 213.8,-103.3"/>
<text text-anchor="middle" x="193" y="-91.3" font-family="Helvetica,sans-Serif" font-size="9.00">hello.js</text>
</a>
</g>
</g>
<!-- api/data&#45;access/hello.js -->
<g id="node2" class="node">
<title>api/data&#45;access/hello.js</title>
<g id="a_node2"><a xlink:href="api/data-access/hello.js" xlink:title="hello.js">
<path fill="#ffffcc" stroke="black" d="M294.8,-103.3C294.8,-103.3 253.2,-103.3 253.2,-103.3 250.1,-103.3 247,-100.2 247,-97.1 247,-97.1 247,-90.9 247,-90.9 247,-87.8 250.1,-84.7 253.2,-84.7 253.2,-84.7 294.8,-84.7 294.8,-84.7 297.9,-84.7 301,-87.8 301,-90.9 301,-90.9 301,-97.1 301,-97.1 301,-100.2 297.9,-103.3 294.8,-103.3"/>
<text text-anchor="middle" x="274" y="-91.3" font-family="Helvetica,sans-Serif" font-size="9.00">hello.js</text>
</a>
</g>
</g>
<!-- api/controllers/hello.js&#45;&gt;api/data&#45;access/hello.js -->
<g id="edge1" class="edge">
<title>api/controllers/hello.js&#45;&gt;api/data&#45;access/hello.js</title>
<path fill="none" stroke="#000000" stroke-width="2" stroke-opacity="0.200000" d="M220.31,-94C226.84,-94 233.91,-94 240.69,-94"/>
<polygon fill="#000000" fill-opacity="0.200000" stroke="#000000" stroke-width="2" stroke-opacity="0.200000" points="240.81,-96.1 246.81,-94 240.81,-91.9 240.81,-96.1"/>
</g>
<!-- config/index.js -->
<g id="node3" class="node">
<title>config/index.js</title>
<g id="a_node3"><a xlink:href="config/index.js" xlink:title="index.js">
<path fill="#ffffcc" stroke="black" d="M380.8,-152.3C380.8,-152.3 339.2,-152.3 339.2,-152.3 336.1,-152.3 333,-149.2 333,-146.1 333,-146.1 333,-139.9 333,-139.9 333,-136.8 336.1,-133.7 339.2,-133.7 339.2,-133.7 380.8,-133.7 380.8,-133.7 383.9,-133.7 387,-136.8 387,-139.9 387,-139.9 387,-146.1 387,-146.1 387,-149.2 383.9,-152.3 380.8,-152.3"/>
<text text-anchor="middle" x="360" y="-140.3" font-family="Helvetica,sans-Serif" font-size="9.00">index.js</text>
</a>
</g>
</g>
<!-- api/data&#45;access/hello.js&#45;&gt;config/index.js -->
<g id="edge2" class="edge">
<title>api/data&#45;access/hello.js&#45;&gt;config/index.js</title>
<path fill="none" stroke="#000000" stroke-width="2" stroke-opacity="0.200000" d="M290.25,-103.31C300.11,-109.3 313.26,-117.2 325,-124 328.78,-126.19 332.82,-128.49 336.75,-130.69"/>
<polygon fill="#000000" fill-opacity="0.200000" stroke="#000000" stroke-width="2" stroke-opacity="0.200000" points="335.73,-132.53 341.99,-133.63 337.78,-128.87 335.73,-132.53"/>
</g>
<!-- fs -->
<g id="node4" class="node">
<title>fs</title>
<path fill="#ffffcc" stroke="grey" d="M380.8,-118.3C380.8,-118.3 339.2,-118.3 339.2,-118.3 336.1,-118.3 333,-115.2 333,-112.1 333,-112.1 333,-105.9 333,-105.9 333,-102.8 336.1,-99.7 339.2,-99.7 339.2,-99.7 380.8,-99.7 380.8,-99.7 383.9,-99.7 387,-102.8 387,-105.9 387,-105.9 387,-112.1 387,-112.1 387,-115.2 383.9,-118.3 380.8,-118.3"/>
<text text-anchor="middle" x="360" y="-106.3" font-family="Helvetica,sans-Serif" font-size="9.00" fill="grey">fs</text>
</g>
<!-- api/data&#45;access/hello.js&#45;&gt;fs -->
<g id="edge3" class="edge">
<title>api/data&#45;access/hello.js&#45;&gt;fs</title>
<path fill="none" stroke="#000000" stroke-dasharray="5,2" stroke-opacity="0.200000" d="M301.12,-98.66C309.18,-100.1 318.15,-101.71 326.58,-103.21"/>
<polygon fill="#000000" fill-opacity="0.200000" stroke="#000000" stroke-opacity="0.200000" points="326.62,-105.35 332.9,-104.34 327.36,-101.22 326.62,-105.35"/>
</g>
<!-- path -->
<g id="node5" class="node">
<title>path</title>
<path fill="#ffffcc" stroke="grey" d="M380.8,-87.3C380.8,-87.3 339.2,-87.3 339.2,-87.3 336.1,-87.3 333,-84.2 333,-81.1 333,-81.1 333,-74.9 333,-74.9 333,-71.8 336.1,-68.7 339.2,-68.7 339.2,-68.7 380.8,-68.7 380.8,-68.7 383.9,-68.7 387,-71.8 387,-74.9 387,-74.9 387,-81.1 387,-81.1 387,-84.2 383.9,-87.3 380.8,-87.3"/>
<text text-anchor="middle" x="360" y="-75.3" font-family="Helvetica,sans-Serif" font-size="9.00" fill="grey">path</text>
</g>
<!-- api/data&#45;access/hello.js&#45;&gt;path -->
<g id="edge4" class="edge">
<title>api/data&#45;access/hello.js&#45;&gt;path</title>
<path fill="none" stroke="#000000" stroke-dasharray="5,2" stroke-opacity="0.200000" d="M301.12,-89.03C309.18,-87.49 318.15,-85.78 326.58,-84.17"/>
<polygon fill="#000000" fill-opacity="0.200000" stroke="#000000" stroke-opacity="0.200000" points="327.4,-86.16 332.9,-82.97 326.61,-82.03 327.4,-86.16"/>
</g>
<!-- util -->
<g id="node6" class="node">
<title>util</title>
<path fill="#ffffcc" stroke="grey" d="M380.8,-56.3C380.8,-56.3 339.2,-56.3 339.2,-56.3 336.1,-56.3 333,-53.2 333,-50.1 333,-50.1 333,-43.9 333,-43.9 333,-40.8 336.1,-37.7 339.2,-37.7 339.2,-37.7 380.8,-37.7 380.8,-37.7 383.9,-37.7 387,-40.8 387,-43.9 387,-43.9 387,-50.1 387,-50.1 387,-53.2 383.9,-56.3 380.8,-56.3"/>
<text text-anchor="middle" x="360" y="-44.3" font-family="Helvetica,sans-Serif" font-size="9.00" fill="grey">util</text>
</g>
<!-- api/data&#45;access/hello.js&#45;&gt;util -->
<g id="edge5" class="edge">
<title>api/data&#45;access/hello.js&#45;&gt;util</title>
<path fill="none" stroke="#000000" stroke-dasharray="5,2" stroke-opacity="0.200000" d="M289.18,-84.6C299.05,-78.21 312.61,-69.73 325,-63 327.32,-61.74 329.76,-60.48 332.22,-59.25"/>
<polygon fill="#000000" fill-opacity="0.200000" stroke="#000000" stroke-opacity="0.200000" points="333.49,-60.96 337.95,-56.44 331.64,-57.19 333.49,-60.96"/>
</g>
<!-- config/default.js -->
<g id="node10" class="node">
<title>config/default.js</title>
<g id="a_node10"><a xlink:href="config/default.js" xlink:title="default.js">
<path fill="#ffffcc" stroke="black" d="M447.8,-152.3C447.8,-152.3 406.2,-152.3 406.2,-152.3 403.1,-152.3 400,-149.2 400,-146.1 400,-146.1 400,-139.9 400,-139.9 400,-136.8 403.1,-133.7 406.2,-133.7 406.2,-133.7 447.8,-133.7 447.8,-133.7 450.9,-133.7 454,-136.8 454,-139.9 454,-139.9 454,-146.1 454,-146.1 454,-149.2 450.9,-152.3 447.8,-152.3"/>
<text text-anchor="middle" x="427" y="-140.3" font-family="Helvetica,sans-Serif" font-size="9.00">default.js</text>
</a>
</g>
</g>
<!-- config/index.js&#45;&gt;config/default.js -->
<g id="edge10" class="edge">
<title>config/index.js&#45;&gt;config/default.js</title>
<path fill="none" stroke="#000000" stroke-width="2" stroke-opacity="0.200000" d="M387.06,-143C389.32,-143 391.61,-143 393.9,-143"/>
<polygon fill="#000000" fill-opacity="0.200000" stroke="#000000" stroke-width="2" stroke-opacity="0.200000" points="393.93,-145.1 399.93,-143 393.93,-140.9 393.93,-145.1"/>
</g>
<!-- api/index.js -->
<g id="node7" class="node">
<title>api/index.js</title>
<g id="a_node7"><a xlink:href="api/index.js" xlink:title="index.js">
<path fill="#ffffcc" stroke="black" d="M63.8,-99.3C63.8,-99.3 22.2,-99.3 22.2,-99.3 19.1,-99.3 16,-96.2 16,-93.1 16,-93.1 16,-86.9 16,-86.9 16,-83.8 19.1,-80.7 22.2,-80.7 22.2,-80.7 63.8,-80.7 63.8,-80.7 66.9,-80.7 70,-83.8 70,-86.9 70,-86.9 70,-93.1 70,-93.1 70,-96.2 66.9,-99.3 63.8,-99.3"/>
<text text-anchor="middle" x="43" y="-87.3" font-family="Helvetica,sans-Serif" font-size="9.00">index.js</text>
</a>
</g>
</g>
<!-- api/routes/hello.js -->
<g id="node8" class="node">
<title>api/routes/hello.js</title>
<g id="a_node8"><a xlink:href="api/routes/hello.js" xlink:title="hello.js">
<path fill="#ffffcc" stroke="black" d="M133.8,-103.3C133.8,-103.3 92.2,-103.3 92.2,-103.3 89.1,-103.3 86,-100.2 86,-97.1 86,-97.1 86,-90.9 86,-90.9 86,-87.8 89.1,-84.7 92.2,-84.7 92.2,-84.7 133.8,-84.7 133.8,-84.7 136.9,-84.7 140,-87.8 140,-90.9 140,-90.9 140,-97.1 140,-97.1 140,-100.2 136.9,-103.3 133.8,-103.3"/>
<text text-anchor="middle" x="113" y="-91.3" font-family="Helvetica,sans-Serif" font-size="9.00">hello.js</text>
</a>
</g>
</g>
<!-- api/index.js&#45;&gt;api/routes/hello.js -->
<g id="edge6" class="edge">
<title>api/index.js&#45;&gt;api/routes/hello.js</title>
<path fill="none" stroke="#000000" stroke-width="2" stroke-opacity="0.200000" d="M70.1,-91.54C73.12,-91.71 76.23,-91.9 79.33,-92.08"/>
<polygon fill="#000000" fill-opacity="0.200000" stroke="#000000" stroke-width="2" stroke-opacity="0.200000" points="79.52,-94.19 85.64,-92.45 79.77,-90 79.52,-94.19"/>
</g>
<!-- node_modules/express -->
<g id="node9" class="node">
<title>node_modules/express</title>
<g id="a_node9"><a xlink:href="node_modules/express" xlink:title="express">
<polygon fill="#c40b0a" fill-opacity="0.101961" stroke="black" points="220,-34.3 168.07,-34.3 166,-32.23 166,-15.7 217.93,-15.7 220,-17.77 220,-34.3"/>
<polyline fill="none" stroke="black" points="217.93,-32.23 166,-32.23 "/>
<polyline fill="none" stroke="black" points="217.93,-32.23 217.93,-15.7 "/>
<polyline fill="none" stroke="black" points="217.93,-32.23 220,-34.3 "/>
<text text-anchor="middle" x="193" y="-22.3" font-family="Helvetica,sans-Serif" font-size="9.00" fill="#c40b0a">express</text>
</a>
</g>
</g>
<!-- api/index.js&#45;&gt;node_modules/express -->
<g id="edge7" class="edge">
<title>api/index.js&#45;&gt;node_modules/express</title>
<path fill="none" stroke="#000000" stroke-opacity="0.200000" d="M63.72,-80.58C68.39,-78.39 73.36,-76.09 78,-74 107.16,-60.88 140.82,-46.5 163.97,-36.73"/>
<polygon fill="#000000" fill-opacity="0.200000" stroke="#000000" stroke-opacity="0.200000" points="164.91,-38.62 169.62,-34.35 163.28,-34.75 164.91,-38.62"/>
</g>
<!-- api/routes/hello.js&#45;&gt;api/controllers/hello.js -->
<g id="edge8" class="edge">
<title>api/routes/hello.js&#45;&gt;api/controllers/hello.js</title>
<path fill="none" stroke="#000000" stroke-width="2" stroke-opacity="0.200000" d="M140.41,-94C146.57,-94 153.21,-94 159.6,-94"/>
<polygon fill="#000000" fill-opacity="0.200000" stroke="#000000" stroke-width="2" stroke-opacity="0.200000" points="159.88,-96.1 165.88,-94 159.88,-91.9 159.88,-96.1"/>
</g>
<!-- api/routes/hello.js&#45;&gt;node_modules/express -->
<g id="edge9" class="edge">
<title>api/routes/hello.js&#45;&gt;node_modules/express</title>
<path fill="none" stroke="#000000" stroke-opacity="0.200000" d="M124.52,-84.69C138.01,-72.76 161.5,-51.98 176.9,-38.36"/>
<polygon fill="#000000" fill-opacity="0.200000" stroke="#000000" stroke-opacity="0.200000" points="178.3,-39.93 181.4,-34.38 175.51,-36.78 178.3,-39.93"/>
</g>
</g>
</svg>
