<?xml version="1.0" encoding="UTF-8" standalone="no"?>
<!DOCTYPE svg PUBLIC "-//W3C//DTD SVG 1.1//EN"
 "http://www.w3.org/Graphics/SVG/1.1/DTD/svg11.dtd">
<!-- Generated by graphviz version 2.44.0 (20200408.0750)
 -->
<!-- Title: dependency&#45;cruiser output Pages: 1 -->
<svg width="110pt" height="112pt"
 viewBox="0.00 0.00 110.00 112.00" xmlns="http://www.w3.org/2000/svg" xmlns:xlink="http://www.w3.org/1999/xlink">
<g id="graph0" class="graph" transform="scale(1 1) rotate(0) translate(4 108)">
<title>dependency&#45;cruiser output</title>
<polygon fill="white" stroke="transparent" points="-4,4 -4,-108 106,-108 106,4 -4,4"/>
<g id="clust1" class="cluster">
<title>cluster_client</title>
<path fill="#ffffff" stroke="black" stroke-width="2" d="M20,-8C20,-8 82,-8 82,-8 88,-8 94,-14 94,-20 94,-20 94,-84 94,-84 94,-90 88,-96 82,-96 82,-96 20,-96 20,-96 14,-96 8,-90 8,-84 8,-84 8,-20 8,-20 8,-14 14,-8 20,-8"/>
<text text-anchor="middle" x="51" y="-83.9" font-family="Helvetica,sans-Serif" font-weight="bold" font-size="9.00">client</text>
</g>
<g id="clust2" class="cluster">
<title>cluster_client/src</title>
<path fill="#ffffff" stroke="black" stroke-width="2" d="M28,-16C28,-16 74,-16 74,-16 80,-16 86,-22 86,-28 86,-28 86,-57 86,-57 86,-63 80,-69 74,-69 74,-69 28,-69 28,-69 22,-69 16,-63 16,-57 16,-57 16,-28 16,-28 16,-22 22,-16 28,-16"/>
<text text-anchor="middle" x="51" y="-56.9" font-family="Helvetica,sans-Serif" font-weight="bold" font-size="9.00">src</text>
</g>
<!-- client/src/index.js -->
<g id="node1" class="node">
<title>client/src/index.js</title>
<g id="a_node1"><a xlink:href="client/src/index.js" xlink:title="index.js">
<path fill="#ccffcc" stroke="black" d="M71.8,-42.3C71.8,-42.3 30.2,-42.3 30.2,-42.3 27.1,-42.3 24,-39.2 24,-36.1 24,-36.1 24,-29.9 24,-29.9 24,-26.8 27.1,-23.7 30.2,-23.7 30.2,-23.7 71.8,-23.7 71.8,-23.7 74.9,-23.7 78,-26.8 78,-29.9 78,-29.9 78,-36.1 78,-36.1 78,-39.2 74.9,-42.3 71.8,-42.3"/>
<text text-anchor="middle" x="51" y="-30.3" font-family="Helvetica,sans-Serif" font-size="9.00">index.js</text>
</a>
</g>
</g>
</g>
</svg>
