<?xml version="1.0" encoding="UTF-8" standalone="no"?>
<!DOCTYPE svg PUBLIC "-//W3C//DTD SVG 1.1//EN"
 "http://www.w3.org/Graphics/SVG/1.1/DTD/svg11.dtd">
<!-- Generated by graphviz version 2.44.0 (20200408.0750)
 -->
<!-- Title: dependency&#45;cruiser output Pages: 1 -->
<svg width="158pt" height="349pt"
 viewBox="0.00 0.00 158.01 349.00" xmlns="http://www.w3.org/2000/svg" xmlns:xlink="http://www.w3.org/1999/xlink">
<g id="graph0" class="graph" transform="scale(1 1) rotate(0) translate(4 345)">
<title>dependency&#45;cruiser output</title>
<polygon fill="white" stroke="transparent" points="-4,4 -4,-345 154.01,-345 154.01,4 -4,4"/>
<g id="clust1" class="cluster">
<title>cluster_api</title>
<path fill="#ffffff" stroke="black" stroke-width="2" d="M79,-280C79,-280 125,-280 125,-280 131,-280 137,-286 137,-292 137,-292 137,-321 137,-321 137,-327 131,-333 125,-333 125,-333 79,-333 79,-333 73,-333 67,-327 67,-321 67,-321 67,-292 67,-292 67,-286 73,-280 79,-280"/>
<text text-anchor="middle" x="102" y="-320.9" font-family="Helvetica,sans-Serif" font-weight="bold" font-size="9.00">api</text>
</g>
<g id="clust2" class="cluster">
<title>cluster_config</title>
<path fill="#ffffff" stroke="black" stroke-width="2" d="M79,-219C79,-219 125,-219 125,-219 131,-219 137,-225 137,-231 137,-231 137,-260 137,-260 137,-266 131,-272 125,-272 125,-272 79,-272 79,-272 73,-272 67,-266 67,-260 67,-260 67,-231 67,-231 67,-225 73,-219 79,-219"/>
<text text-anchor="middle" x="102" y="-259.9" font-family="Helvetica,sans-Serif" font-weight="bold" font-size="9.00">config</text>
</g>
<g id="clust3" class="cluster">
<title>cluster_node_modules</title>
<path fill="#ffffff" stroke="black" stroke-width="2" d="M74,-8C74,-8 130.01,-8 130.01,-8 136.01,-8 142.01,-14 142.01,-20 142.01,-20 142.01,-142 142.01,-142 142.01,-148 136.01,-154 130.01,-154 130.01,-154 74,-154 74,-154 68,-154 62,-148 62,-142 62,-142 62,-20 62,-20 62,-14 68,-8 74,-8"/>
<text text-anchor="middle" x="102" y="-141.9" font-family="Helvetica,sans-Serif" font-weight="bold" font-size="9.00">node_modules</text>
</g>
<!-- api/index.js -->
<g id="node1" class="node">
<title>api/index.js</title>
<g id="a_node1"><a xlink:href="api/index.js" xlink:title="index.js">
<path fill="#ffffcc" stroke="black" d="M122.8,-306.3C122.8,-306.3 81.2,-306.3 81.2,-306.3 78.1,-306.3 75,-303.2 75,-300.1 75,-300.1 75,-293.9 75,-293.9 75,-290.8 78.1,-287.7 81.2,-287.7 81.2,-287.7 122.8,-287.7 122.8,-287.7 125.9,-287.7 129,-290.8 129,-293.9 129,-293.9 129,-300.1 129,-300.1 129,-303.2 125.9,-306.3 122.8,-306.3"/>
<text text-anchor="middle" x="102" y="-294.3" font-family="Helvetica,sans-Serif" font-size="9.00">index.js</text>
</a>
</g>
</g>
<!-- config/index.js -->
<g id="node2" class="node">
<title>config/index.js</title>
<g id="a_node2"><a xlink:href="config/index.js" xlink:title="index.js">
<path fill="#ffffcc" stroke="black" d="M122.8,-245.3C122.8,-245.3 81.2,-245.3 81.2,-245.3 78.1,-245.3 75,-242.2 75,-239.1 75,-239.1 75,-232.9 75,-232.9 75,-229.8 78.1,-226.7 81.2,-226.7 81.2,-226.7 122.8,-226.7 122.8,-226.7 125.9,-226.7 129,-229.8 129,-232.9 129,-232.9 129,-239.1 129,-239.1 129,-242.2 125.9,-245.3 122.8,-245.3"/>
<text text-anchor="middle" x="102" y="-233.3" font-family="Helvetica,sans-Serif" font-size="9.00">index.js</text>
</a>
</g>
</g>
<!-- fs -->
<g id="node3" class="node">
<title>fs</title>
<path fill="#ffffcc" stroke="grey" d="M122.8,-211.3C122.8,-211.3 81.2,-211.3 81.2,-211.3 78.1,-211.3 75,-208.2 75,-205.1 75,-205.1 75,-198.9 75,-198.9 75,-195.8 78.1,-192.7 81.2,-192.7 81.2,-192.7 122.8,-192.7 122.8,-192.7 125.9,-192.7 129,-195.8 129,-198.9 129,-198.9 129,-205.1 129,-205.1 129,-208.2 125.9,-211.3 122.8,-211.3"/>
<text text-anchor="middle" x="102" y="-199.3" font-family="Helvetica,sans-Serif" font-size="9.00" fill="grey">fs</text>
</g>
<!-- index.js -->
<g id="node4" class="node">
<title>index.js</title>
<g id="a_node4"><a xlink:href="index.js" xlink:title="index.js">
<path fill="#ffffcc" stroke="black" d="M47.8,-153.3C47.8,-153.3 6.2,-153.3 6.2,-153.3 3.1,-153.3 0,-150.2 0,-147.1 0,-147.1 0,-140.9 0,-140.9 0,-137.8 3.1,-134.7 6.2,-134.7 6.2,-134.7 47.8,-134.7 47.8,-134.7 50.9,-134.7 54,-137.8 54,-140.9 54,-140.9 54,-147.1 54,-147.1 54,-150.2 50.9,-153.3 47.8,-153.3"/>
<text text-anchor="middle" x="27" y="-141.3" font-family="Helvetica,sans-Serif" font-size="9.00">index.js</text>
</a>
</g>
</g>
<!-- index.js&#45;&gt;api/index.js -->
<g id="edge1" class="edge">
<title>index.js&#45;&gt;api/index.js</title>
<path fill="none" stroke="#000000" stroke-width="2" stroke-opacity="0.200000" d="M28.02,-153.32C28.54,-176.38 32.78,-237 62,-275 64.74,-278.56 68.22,-281.63 71.98,-284.26"/>
<polygon fill="#000000" fill-opacity="0.200000" stroke="#000000" stroke-width="2" stroke-opacity="0.200000" points="71.04,-286.14 77.23,-287.56 73.27,-282.59 71.04,-286.14"/>
</g>
<!-- index.js&#45;&gt;config/index.js -->
<g id="edge2" class="edge">
<title>index.js&#45;&gt;config/index.js</title>
<path fill="none" stroke="#000000" stroke-width="2" stroke-opacity="0.200000" d="M30.28,-153.72C34.29,-168.97 43.97,-198.65 62,-217 64.38,-219.42 67.12,-221.57 70.03,-223.48"/>
<polygon fill="#000000" fill-opacity="0.200000" stroke="#000000" stroke-width="2" stroke-opacity="0.200000" points="69.18,-225.41 75.41,-226.66 71.31,-221.8 69.18,-225.41"/>
</g>
<!-- index.js&#45;&gt;fs -->
<g id="edge6" class="edge">
<title>index.js&#45;&gt;fs</title>
<path fill="none" stroke="#000000" stroke-dasharray="5,2" stroke-opacity="0.200000" d="M33.68,-153.51C39.69,-162.87 49.96,-177.04 62,-186 64.3,-187.71 66.81,-189.28 69.41,-190.69"/>
<polygon fill="#000000" fill-opacity="0.200000" stroke="#000000" stroke-opacity="0.200000" points="68.54,-192.61 74.84,-193.41 70.42,-188.85 68.54,-192.61"/>
</g>
<!-- node_modules/body&#45;parser -->
<g id="node5" class="node">
<title>node_modules/body&#45;parser</title>
<g id="a_node5"><a xlink:href="node_modules/body-parser" xlink:title="body&#45;parser">
<polygon fill="#c40b0a" fill-opacity="0.101961" stroke="black" points="134.01,-127.3 72.06,-127.3 70,-125.23 70,-108.7 131.94,-108.7 134.01,-110.77 134.01,-127.3"/>
<polyline fill="none" stroke="black" points="131.94,-125.23 70,-125.23 "/>
<polyline fill="none" stroke="black" points="131.94,-125.23 131.94,-108.7 "/>
<polyline fill="none" stroke="black" points="131.94,-125.23 134.01,-127.3 "/>
<text text-anchor="middle" x="102" y="-115.3" font-family="Helvetica,sans-Serif" font-size="9.00" fill="#c40b0a">body&#45;parser</text>
</a>
</g>
</g>
<!-- index.js&#45;&gt;node_modules/body&#45;parser -->
<g id="edge3" class="edge">
<title>index.js&#45;&gt;node_modules/body&#45;parser</title>
<path fill="none" stroke="#000000" stroke-opacity="0.200000" d="M54.36,-134.61C58.95,-132.98 63.78,-131.26 68.51,-129.57"/>
<polygon fill="#000000" fill-opacity="0.200000" stroke="#000000" stroke-opacity="0.200000" points="69.49,-131.45 74.44,-127.46 68.08,-127.49 69.49,-131.45"/>
</g>
<!-- node_modules/cors -->
<g id="node6" class="node">
<title>node_modules/cors</title>
<g id="a_node6"><a xlink:href="node_modules/cors" xlink:title="cors">
<polygon fill="#c40b0a" fill-opacity="0.101961" stroke="black" points="129,-96.3 77.07,-96.3 75,-94.23 75,-77.7 126.94,-77.7 129,-79.77 129,-96.3"/>
<polyline fill="none" stroke="black" points="126.94,-94.23 75,-94.23 "/>
<polyline fill="none" stroke="black" points="126.94,-94.23 126.94,-77.7 "/>
<polyline fill="none" stroke="black" points="126.94,-94.23 129,-96.3 "/>
<text text-anchor="middle" x="102" y="-84.3" font-family="Helvetica,sans-Serif" font-size="9.00" fill="#c40b0a">cors</text>
</a>
</g>
</g>
<!-- index.js&#45;&gt;node_modules/cors -->
<g id="edge4" class="edge">
<title>index.js&#45;&gt;node_modules/cors</title>
<path fill="none" stroke="#000000" stroke-opacity="0.200000" d="M33.96,-134.38C40.04,-125.24 50.23,-111.65 62,-103 64.31,-101.3 66.83,-99.75 69.43,-98.33"/>
<polygon fill="#000000" fill-opacity="0.200000" stroke="#000000" stroke-opacity="0.200000" points="70.44,-100.18 74.87,-95.63 68.57,-96.42 70.44,-100.18"/>
</g>
<!-- node_modules/express -->
<g id="node7" class="node">
<title>node_modules/express</title>
<g id="a_node7"><a xlink:href="node_modules/express" xlink:title="express">
<polygon fill="#c40b0a" fill-opacity="0.101961" stroke="black" points="129,-65.3 77.07,-65.3 75,-63.23 75,-46.7 126.94,-46.7 129,-48.77 129,-65.3"/>
<polyline fill="none" stroke="black" points="126.94,-63.23 75,-63.23 "/>
<polyline fill="none" stroke="black" points="126.94,-63.23 126.94,-46.7 "/>
<polyline fill="none" stroke="black" points="126.94,-63.23 129,-65.3 "/>
<text text-anchor="middle" x="102" y="-53.3" font-family="Helvetica,sans-Serif" font-size="9.00" fill="#c40b0a">express</text>
</a>
</g>
</g>
<!-- index.js&#45;&gt;node_modules/express -->
<g id="edge5" class="edge">
<title>index.js&#45;&gt;node_modules/express</title>
<path fill="none" stroke="#000000" stroke-opacity="0.200000" d="M30.18,-134.27C34.06,-119.05 43.55,-89.51 62,-72 64.14,-69.97 66.58,-68.17 69.17,-66.6"/>
<polygon fill="#000000" fill-opacity="0.200000" stroke="#000000" stroke-opacity="0.200000" points="70.34,-68.36 74.63,-63.67 68.35,-64.65 70.34,-68.36"/>
</g>
<!-- node_modules/morgan -->
<g id="node8" class="node">
<title>node_modules/morgan</title>
<g id="a_node8"><a xlink:href="node_modules/morgan" xlink:title="morgan">
<polygon fill="#c40b0a" fill-opacity="0.101961" stroke="black" points="129,-34.3 77.07,-34.3 75,-32.23 75,-15.7 126.94,-15.7 129,-17.77 129,-34.3"/>
<polyline fill="none" stroke="black" points="126.94,-32.23 75,-32.23 "/>
<polyline fill="none" stroke="black" points="126.94,-32.23 126.94,-15.7 "/>
<polyline fill="none" stroke="black" points="126.94,-32.23 129,-34.3 "/>
<text text-anchor="middle" x="102" y="-22.3" font-family="Helvetica,sans-Serif" font-size="9.00" fill="#c40b0a">morgan</text>
</a>
</g>
</g>
<!-- index.js&#45;&gt;node_modules/morgan -->
<g id="edge7" class="edge">
<title>index.js&#45;&gt;node_modules/morgan</title>
<path fill="none" stroke="#000000" stroke-opacity="0.200000" d="M28.56,-134.43C30.21,-114.5 36.71,-68.14 62,-41 64.07,-38.77 66.5,-36.85 69.12,-35.19"/>
<polygon fill="#000000" fill-opacity="0.200000" stroke="#000000" stroke-opacity="0.200000" points="70.44,-36.86 74.69,-32.13 68.42,-33.18 70.44,-36.86"/>
</g>
<!-- path -->
<g id="node9" class="node">
<title>path</title>
<path fill="#ffffcc" stroke="grey" d="M122.8,-180.3C122.8,-180.3 81.2,-180.3 81.2,-180.3 78.1,-180.3 75,-177.2 75,-174.1 75,-174.1 75,-167.9 75,-167.9 75,-164.8 78.1,-161.7 81.2,-161.7 81.2,-161.7 122.8,-161.7 122.8,-161.7 125.9,-161.7 129,-164.8 129,-167.9 129,-167.9 129,-174.1 129,-174.1 129,-177.2 125.9,-180.3 122.8,-180.3"/>
<text text-anchor="middle" x="102" y="-168.3" font-family="Helvetica,sans-Serif" font-size="9.00" fill="grey">path</text>
</g>
<!-- index.js&#45;&gt;path -->
<g id="edge8" class="edge">
<title>index.js&#45;&gt;path</title>
<path fill="none" stroke="#000000" stroke-dasharray="5,2" stroke-opacity="0.200000" d="M52.49,-153.43C55.69,-154.64 58.92,-155.86 62,-157 64.35,-157.87 66.79,-158.77 69.24,-159.66"/>
<polygon fill="#000000" fill-opacity="0.200000" stroke="#000000" stroke-opacity="0.200000" points="68.6,-161.66 74.96,-161.74 70.04,-157.72 68.6,-161.66"/>
</g>
</g>
</svg>
